<svg width="296" height="24" viewBox="0 0 296 24" fill="none" xmlns="http://www.w3.org/2000/svg">
<rect width="24" height="24" rx="12" fill="#FF645A"/>
<path d="M20 12L8 18.9282L8 5.0718L20 12Z" fill="#F4F7FA"/>
<line x1="32.5" y1="10.5" x2="32.5" y2="13.5" stroke="#FF645A" stroke-linecap="round"/>
<line x1="34.5" y1="10.5" x2="34.5" y2="13.5" stroke="#FF645A" stroke-linecap="round"/>
<line x1="36.5" y1="10.5" x2="36.5" y2="13.5" stroke="#FF645A" stroke-linecap="round"/>
<line x1="38.5" y1="10.5" x2="38.5" y2="13.5" stroke="#FF645A" stroke-linecap="round"/>
<line x1="40.5" y1="10.5" x2="40.5" y2="13.5" stroke="#FF645A" stroke-linecap="round"/>
<line x1="42.5" y1="10.5" x2="42.5" y2="13.5" stroke="#FF645A" stroke-linecap="round"/>
<line x1="44.5" y1="9.5" x2="44.5" y2="14.5" stroke="#FF645A" stroke-linecap="round"/>
<line x1="46.5" y1="9.5" x2="46.5" y2="14.5" stroke="#FF645A" stroke-linecap="round"/>
<line x1="48.5" y1="9.5" x2="48.5" y2="14.5" stroke="#FF645A" stroke-linecap="round"/>
<line x1="50.5" y1="9.5" x2="50.5" y2="14.5" stroke="#FF645A" stroke-linecap="round"/>
<line x1="52.5" y1="9.5" x2="52.5" y2="14.5" stroke="#FF645A" stroke-linecap="round"/>
<line x1="54.5" y1="8" x2="54.5" y2="16" stroke="#FF645A" stroke-linecap="round"/>
<line x1="56.5" y1="8" x2="56.5" y2="16" stroke="#FF645A" stroke-linecap="round"/>
<line x1="58.5" y1="8" x2="58.5" y2="16" stroke="#FF645A" stroke-linecap="round"/>
<line x1="60.5" y1="8" x2="60.5" y2="16" stroke="#FF645A" stroke-linecap="round"/>
<line x1="62.5" y1="6.5" x2="62.5" y2="17.5" stroke="#FF645A" stroke-linecap="round"/>
<line x1="64.5" y1="8" x2="64.5" y2="16" stroke="#FF645A" stroke-linecap="round"/>
<line x1="66.5" y1="8" x2="66.5" y2="16" stroke="#FF645A" stroke-linecap="round"/>
<line x1="68.5" y1="8" x2="68.5" y2="16" stroke="#FF645A" stroke-linecap="round"/>
<line x1="70.5" y1="8" x2="70.5" y2="16" stroke="#FF645A" stroke-linecap="round"/>
<line x1="72.5" y1="8" x2="72.5" y2="16" stroke="#FF645A" stroke-linecap="round"/>
<line x1="74.5" y1="3.5" x2="74.5" y2="20.5" stroke="#FF645A" stroke-linecap="round"/>
<line x1="76.5" y1="4.5" x2="76.5" y2="19.5" stroke="#FF645A" stroke-linecap="round"/>
<line x1="78.5" y1="4.5" x2="78.5" y2="19.5" stroke="#FF645A" stroke-linecap="round"/>
<line x1="80.5" y1="4.5" x2="80.5" y2="19.5" stroke="#FF645A" stroke-linecap="round"/>
<line x1="82.5" y1="4.5" x2="82.5" y2="19.5" stroke="#FF645A" stroke-linecap="round"/>
<line x1="84.5" y1="6.5" x2="84.5" y2="17.5" stroke="#FF645A" stroke-linecap="round"/>
<line x1="86.5" y1="6.5" x2="86.5" y2="17.5" stroke="#FF645A" stroke-linecap="round"/>
<line x1="88.5" y1="8" x2="88.5" y2="16" stroke="#FF645A" stroke-linecap="round"/>
<line x1="90.5" y1="8" x2="90.5" y2="16" stroke="#FF645A" stroke-linecap="round"/>
<line x1="92.5" y1="8" x2="92.5" y2="16" stroke="#FF645A" stroke-linecap="round"/>
<line x1="94.5" y1="8" x2="94.5" y2="16" stroke="#FF645A" stroke-linecap="round"/>
<line x1="96.5" y1="8" x2="96.5" y2="16" stroke="#FF645A" stroke-linecap="round"/>
<line x1="98.5" y1="6.5" x2="98.5" y2="17.5" stroke="#FF645A" stroke-linecap="round"/>
<line x1="100.5" y1="4.5" x2="100.5" y2="19.5" stroke="#FF645A" stroke-linecap="round"/>
<line x1="102.5" y1="8" x2="102.5" y2="16" stroke="#FF645A" stroke-linecap="round"/>
<line x1="104.5" y1="8" x2="104.5" y2="16" stroke="#FF645A" stroke-linecap="round"/>
<line x1="106.5" y1="8" x2="106.5" y2="16" stroke="#FF645A" stroke-linecap="round"/>
<line x1="108.5" y1="6.5" x2="108.5" y2="17.5" stroke="#FF645A" stroke-linecap="round"/>
<line x1="110.5" y1="6.5" x2="110.5" y2="17.5" stroke="#FF645A" stroke-linecap="round"/>
<line x1="112.5" y1="3.5" x2="112.5" y2="20.5" stroke="#FF645A" stroke-linecap="round"/>
<line x1="114.5" y1="4.5" x2="114.5" y2="19.5" stroke="#FF645A" stroke-linecap="round"/>
<line x1="116.5" y1="4.5" x2="116.5" y2="19.5" stroke="#FF645A" stroke-linecap="round"/>
<line x1="118.5" y1="4.5" x2="118.5" y2="19.5" stroke="#FF645A" stroke-linecap="round"/>
<line x1="120.5" y1="4.5" x2="120.5" y2="19.5" stroke="#FF645A" stroke-linecap="round"/>
<line x1="122.5" y1="6.5" x2="122.5" y2="17.5" stroke="#FF645A" stroke-linecap="round"/>
<line x1="124.5" y1="6.5" x2="124.5" y2="17.5" stroke="#FF645A" stroke-linecap="round"/>
<line x1="126.5" y1="8" x2="126.5" y2="16" stroke="#FF645A" stroke-linecap="round"/>
<line x1="128.5" y1="8" x2="128.5" y2="16" stroke="#FF645A" stroke-linecap="round"/>
<line x1="130.5" y1="8" x2="130.5" y2="16" stroke="#FF645A" stroke-linecap="round"/>
<line x1="132.5" y1="8" x2="132.5" y2="16" stroke="#FF645A" stroke-linecap="round"/>
<line x1="134.5" y1="10.5" x2="134.5" y2="13.5" stroke="#FF645A" stroke-linecap="round"/>
<line x1="136.5" y1="10.5" x2="136.5" y2="13.5" stroke="#FF645A" stroke-linecap="round"/>
<line x1="138.5" y1="8" x2="138.5" y2="16" stroke="#FF645A" stroke-linecap="round"/>
<line x1="140.5" y1="10.5" x2="140.5" y2="13.5" stroke="#FF645A" stroke-linecap="round"/>
<line x1="142.5" y1="6.5" x2="142.5" y2="17.5" stroke="#FF645A" stroke-linecap="round"/>
<line x1="144.5" y1="6.5" x2="144.5" y2="17.5" stroke="#FF645A" stroke-linecap="round"/>
<line x1="146.5" y1="10.5" x2="146.5" y2="13.5" stroke="#FF645A" stroke-linecap="round"/>
<line x1="148.5" y1="10.5" x2="148.5" y2="13.5" stroke="#FF645A" stroke-linecap="round"/>
<line x1="150.5" y1="6.5" x2="150.5" y2="17.5" stroke="#FF645A" stroke-linecap="round"/>
<line x1="152.5" y1="6.5" x2="152.5" y2="17.5" stroke="#FF645A" stroke-linecap="round"/>
<line x1="154.5" y1="6.5" x2="154.5" y2="17.5" stroke="#FF645A" stroke-linecap="round"/>
<line x1="156.5" y1="6.5" x2="156.5" y2="17.5" stroke="#FF645A" stroke-linecap="round"/>
<line x1="158.5" y1="10.5" x2="158.5" y2="13.5" stroke="#FF645A" stroke-linecap="round"/>
<line x1="160.5" y1="10.5" x2="160.5" y2="13.5" stroke="#FF645A" stroke-linecap="round"/>
<line x1="162.5" y1="3.5" x2="162.5" y2="20.5" stroke="#FF645A" stroke-linecap="round"/>
<line x1="164.5" y1="8" x2="164.5" y2="16" stroke="#FF645A" stroke-linecap="round"/>
<line x1="166.5" y1="8" x2="166.5" y2="16" stroke="#FF645A" stroke-linecap="round"/>
<line x1="168.5" y1="8" x2="168.5" y2="16" stroke="#FF645A" stroke-linecap="round"/>
<line x1="170.5" y1="10.5" x2="170.5" y2="13.5" stroke="#FF645A" stroke-linecap="round"/>
<line x1="172.5" y1="10.5" x2="172.5" y2="13.5" stroke="#FF645A" stroke-linecap="round"/>
<line x1="174.5" y1="10.5" x2="174.5" y2="13.5" stroke="#FF645A" stroke-linecap="round"/>
<line x1="176.5" y1="8" x2="176.5" y2="16" stroke="#FF645A" stroke-linecap="round"/>
<line x1="178.5" y1="8" x2="178.5" y2="16" stroke="#FF645A" stroke-linecap="round"/>
<line x1="180.5" y1="8" x2="180.5" y2="16" stroke="#FF645A" stroke-linecap="round"/>
<line x1="182.5" y1="8" x2="182.5" y2="16" stroke="#FF645A" stroke-linecap="round"/>
<line x1="184.5" y1="8" x2="184.5" y2="16" stroke="#FF645A" stroke-linecap="round"/>
<line x1="186.5" y1="8" x2="186.5" y2="16" stroke="#FF645A" stroke-linecap="round"/>
<line x1="188.5" y1="10.5" x2="188.5" y2="13.5" stroke="#FF645A" stroke-linecap="round"/>
<line x1="190.5" y1="10.5" x2="190.5" y2="13.5" stroke="#FF645A" stroke-linecap="round"/>
<line x1="192.5" y1="8" x2="192.5" y2="16" stroke="#FF645A" stroke-linecap="round"/>
<line x1="194.5" y1="8" x2="194.5" y2="16" stroke="#FF645A" stroke-linecap="round"/>
<line x1="196.5" y1="4.5" x2="196.5" y2="19.5" stroke="#FF645A" stroke-linecap="round"/>
<line x1="198.5" y1="8" x2="198.5" y2="16" stroke="#FF645A" stroke-linecap="round"/>
<line x1="200.5" y1="8" x2="200.5" y2="16" stroke="#FF645A" stroke-linecap="round"/>
<line x1="202.5" y1="8" x2="202.5" y2="16" stroke="#FF645A" stroke-linecap="round"/>
<line x1="204.5" y1="10.5" x2="204.5" y2="13.5" stroke="#FF645A" stroke-linecap="round"/>
<line x1="206.5" y1="10.5" x2="206.5" y2="13.5" stroke="#FF645A" stroke-linecap="round"/>
<line x1="208.5" y1="6.5" x2="208.5" y2="17.5" stroke="#FF645A" stroke-linecap="round"/>
<line x1="210.5" y1="10.5" x2="210.5" y2="13.5" stroke="#FF645A" stroke-linecap="round"/>
<line x1="212.5" y1="6.5" x2="212.5" y2="17.5" stroke="#FF645A" stroke-linecap="round"/>
<line x1="214.5" y1="8" x2="214.5" y2="16" stroke="#FF645A" stroke-linecap="round"/>
<line x1="216.5" y1="8" x2="216.5" y2="16" stroke="#FF645A" stroke-linecap="round"/>
<line x1="218.5" y1="8" x2="218.5" y2="16" stroke="#FF645A" stroke-linecap="round"/>
<line x1="220.5" y1="3.5" x2="220.5" y2="20.5" stroke="#FF645A" stroke-linecap="round"/>
<line x1="222.5" y1="4.5" x2="222.5" y2="19.5" stroke="#FF645A" stroke-linecap="round"/>
<line x1="224.5" y1="6.5" x2="224.5" y2="17.5" stroke="#FF645A" stroke-linecap="round"/>
<line x1="226.5" y1="6.5" x2="226.5" y2="17.5" stroke="#FF645A" stroke-linecap="round"/>
<line x1="228.5" y1="10.5" x2="228.5" y2="13.5" stroke="#FF645A" stroke-linecap="round"/>
<line x1="230.5" y1="8" x2="230.5" y2="16" stroke="#FF645A" stroke-linecap="round"/>
<line x1="232.5" y1="8" x2="232.5" y2="16" stroke="#FF645A" stroke-linecap="round"/>
<line x1="234.5" y1="8" x2="234.5" y2="16" stroke="#FF645A" stroke-linecap="round"/>
<line x1="236.5" y1="9.5" x2="236.5" y2="14.5" stroke="#FF645A" stroke-linecap="round"/>
<line x1="238.5" y1="9.5" x2="238.5" y2="14.5" stroke="#FF645A" stroke-linecap="round"/>
<line x1="240.5" y1="9.5" x2="240.5" y2="14.5" stroke="#FF645A" stroke-linecap="round"/>
<line x1="242.5" y1="9.5" x2="242.5" y2="14.5" stroke="#FF645A" stroke-linecap="round"/>
<line x1="244.5" y1="9.5" x2="244.5" y2="14.5" stroke="#FF645A" stroke-linecap="round"/>
<line x1="246.5" y1="9.5" x2="246.5" y2="14.5" stroke="#FF645A" stroke-linecap="round"/>
<line x1="248.5" y1="10.5" x2="248.5" y2="13.5" stroke="#FF645A" stroke-linecap="round"/>
<line x1="250.5" y1="10.5" x2="250.5" y2="13.5" stroke="#FF645A" stroke-linecap="round"/>
<line x1="252.5" y1="10.5" x2="252.5" y2="13.5" stroke="#FF645A" stroke-linecap="round"/>
<line x1="254.5" y1="10.5" x2="254.5" y2="13.5" stroke="#FF645A" stroke-linecap="round"/>
<path d="M266.062 17.1293C265.367 17.1293 264.775 16.94 264.285 16.5614C263.796 16.1798 263.422 15.6274 263.163 14.9041C262.905 14.1778 262.776 13.3007 262.776 12.2727C262.776 11.2509 262.905 10.3784 263.163 9.65518C263.425 8.92886 263.8 8.37488 264.29 7.99325C264.782 7.60855 265.373 7.41619 266.062 7.41619C266.752 7.41619 267.341 7.60855 267.831 7.99325C268.323 8.37488 268.699 8.92886 268.957 9.65518C269.219 10.3784 269.349 11.2509 269.349 12.2727C269.349 13.3007 269.22 14.1778 268.962 14.9041C268.703 15.6274 268.329 16.1798 267.84 16.5614C267.35 16.94 266.758 17.1293 266.062 17.1293ZM266.062 16.1136C266.752 16.1136 267.287 15.7812 267.669 15.1165C268.051 14.4517 268.241 13.5038 268.241 12.2727C268.241 11.4541 268.154 10.757 267.978 10.1815C267.806 9.60594 267.557 9.16738 267.23 8.86577C266.907 8.56416 266.518 8.41335 266.062 8.41335C265.379 8.41335 264.845 8.75035 264.461 9.42436C264.076 10.0953 263.884 11.0447 263.884 12.2727C263.884 13.0914 263.97 13.7869 264.142 14.3594C264.314 14.9318 264.562 15.3673 264.885 15.6658C265.212 15.9644 265.604 16.1136 266.062 16.1136ZM274.428 7.54545V17H273.283V8.74574H273.227L270.919 10.2784V9.11506L273.283 7.54545H274.428ZM277.959 15.7905C277.731 15.7905 277.536 15.7089 277.373 15.5458C277.21 15.3827 277.128 15.1873 277.128 14.9595C277.128 14.7318 277.21 14.5363 277.373 14.3732C277.536 14.2101 277.731 14.1286 277.959 14.1286C278.187 14.1286 278.382 14.2101 278.545 14.3732C278.709 14.5363 278.79 14.7318 278.79 14.9595C278.79 15.1103 278.752 15.2488 278.675 15.375C278.601 15.5012 278.501 15.6027 278.375 15.6797C278.252 15.7536 278.113 15.7905 277.959 15.7905ZM277.959 11.0078C277.731 11.0078 277.536 10.9263 277.373 10.7631C277.21 10.6 277.128 10.4046 277.128 10.1768C277.128 9.9491 277.21 9.75367 277.373 9.59055C277.536 9.42744 277.731 9.34588 277.959 9.34588C278.187 9.34588 278.382 9.42744 278.545 9.59055C278.709 9.75367 278.79 9.9491 278.79 10.1768C278.79 10.3277 278.752 10.4661 278.675 10.5923C278.601 10.7185 278.501 10.8201 278.375 10.897C278.252 10.9709 278.113 11.0078 277.959 11.0078ZM280.727 17V16.169L283.847 12.7528C284.214 12.3527 284.515 12.005 284.752 11.7095C284.989 11.411 285.165 11.1309 285.279 10.8693C285.396 10.6046 285.454 10.3277 285.454 10.0384C285.454 9.70597 285.374 9.41821 285.214 9.17507C285.057 8.93194 284.842 8.7442 284.568 8.61186C284.294 8.47952 283.986 8.41335 283.644 8.41335C283.281 8.41335 282.964 8.48875 282.693 8.63956C282.426 8.78729 282.218 8.99503 282.07 9.26278C281.925 9.53054 281.853 9.84446 281.853 10.2045H280.764C280.764 9.65057 280.891 9.1643 281.147 8.74574C281.402 8.32718 281.75 8.00095 282.19 7.76704C282.633 7.53314 283.13 7.41619 283.681 7.41619C284.235 7.41619 284.726 7.53314 285.154 7.76704C285.582 8.00095 285.917 8.31641 286.16 8.71342C286.403 9.11044 286.525 9.55208 286.525 10.0384C286.525 10.3861 286.462 10.7262 286.336 11.0586C286.213 11.3879 285.997 11.7557 285.689 12.1619C285.385 12.5651 284.962 13.0575 284.42 13.6392L282.296 15.9105V15.9844H286.691V17H280.727ZM288.173 15.0611V14.1193L292.328 7.54545H293.011V9.00426H292.55L289.41 13.9716V14.0455H295.006V15.0611H288.173ZM292.623 17V14.7749V14.3363V7.54545H293.713V17H292.623Z" fill="#FF645A"/>
</svg>
