<svg width="20" height="20" viewBox="0 0 20 20" fill="none" xmlns="http://www.w3.org/2000/svg">
<g clip-path="url(#clip0_95_2071)">
<path d="M3.14835 9.9518C2.35832 8.57426 1.97687 7.4494 1.74686 6.30918C1.40668 4.62282 2.18517 2.97551 3.47481 1.9244C4.01987 1.48016 4.64468 1.63194 4.967 2.21017L5.69465 3.51559C6.2714 4.55031 6.55978 5.06767 6.50258 5.61616C6.44538 6.16466 6.05647 6.61139 5.27864 7.50484L3.14835 9.9518ZM3.14835 9.9518C4.74741 12.7401 7.25686 15.2509 10.0484 16.8518M10.0484 16.8518C11.4259 17.6418 12.5508 18.0233 13.691 18.2533C15.3773 18.5935 17.0247 17.815 18.0758 16.5254C18.52 15.9803 18.3682 15.3555 17.79 15.0332L16.4846 14.3055C15.4499 13.7288 14.9325 13.4404 14.384 13.4976C13.8355 13.5548 13.3888 13.9437 12.4953 14.7215L10.0484 16.8518Z" stroke="#686D82" stroke-width="1.5" stroke-linejoin="round"/>
</g>
<defs>
<clipPath id="clip0_95_2071">
<rect width="20" height="20" fill="white"/>
</clipPath>
</defs>
</svg>
