<svg width="20" height="20" viewBox="0 0 20 20" fill="none" xmlns="http://www.w3.org/2000/svg">
<path d="M17.5 9.16699V8.33366C17.5 5.19096 17.5 3.61961 16.4663 2.6433C15.4325 1.66699 13.7687 1.66699 10.4412 1.66699L9.55883 1.66699C6.23126 1.66699 4.56748 1.66699 3.53374 2.6433C2.5 3.61961 2.5 5.19096 2.5 8.33366L2.5 11.667C2.5 14.8097 2.5 16.381 3.53374 17.3573C4.56748 18.3337 6.23126 18.3337 9.55882 18.3337H10" stroke="#686D82" stroke-width="1.5" stroke-linecap="round"/>
<path d="M6.66699 5.83398H13.3337" stroke="#686D82" stroke-width="1.5" stroke-linecap="round"/>
<path d="M6.66699 10H10.8337" stroke="#686D82" stroke-width="1.5" stroke-linecap="round"/>
<path d="M17.5 17.2062L17.5 14.167C17.5 12.9758 16.3807 11.667 15 11.667C13.6193 11.667 12.5 12.9758 12.5 14.167L12.5 17.0837C12.5 17.7334 13.1105 18.3337 13.8636 18.3337C14.6168 18.3337 15.2273 17.7334 15.2273 17.0837L15.2273 14.8042" stroke="#686D82" stroke-width="1.5" stroke-linecap="round"/>
</svg>
