<svg width="20" height="20" viewBox="0 0 20 20" fill="none" xmlns="http://www.w3.org/2000/svg">
<path d="M14.1663 5.83366V9.16699C14.1663 11.4682 12.3009 13.3337 9.99967 13.3337C7.69849 13.3337 5.83301 11.4682 5.83301 9.16699V5.83366C5.83301 3.53247 7.69849 1.66699 9.99967 1.66699C12.3009 1.66699 14.1663 3.53247 14.1663 5.83366Z" stroke="#686D82" stroke-width="1.5"/>
<path d="M13 6H10M13 10H10" stroke="#686D82" stroke-width="1.5" stroke-linecap="round"/>
<path d="M16.6663 9.16699C16.6663 12.8489 13.6816 15.8337 9.99967 15.8337M9.99967 15.8337C6.31778 15.8337 3.33301 12.8489 3.33301 9.16699M9.99967 15.8337V18.3337M9.99967 18.3337H12.4997M9.99967 18.3337H7.49967" stroke="#686D82" stroke-width="1.5" stroke-linecap="round"/>
</svg>
