<svg width="20" height="20" viewBox="0 0 20 20" fill="none" xmlns="http://www.w3.org/2000/svg">
<g clip-path="url(#clip0_95_2069)">
<path d="M4.16699 4.85616H6.41699M9.16699 4.85616H7.91699M6.41699 4.85616H7.91699M6.41699 4.85616V4.1665M7.91699 4.85616C7.65325 5.79931 7.10095 6.69087 6.47056 7.47438M4.86342 9.1665C5.37302 8.69791 5.94856 8.12319 6.47056 7.47438M6.47056 7.47438C6.14914 7.09754 5.69914 6.48782 5.57056 6.21196M6.47056 7.47438L7.43485 8.47685" stroke="#686D82" stroke-width="1.5" stroke-linecap="round" stroke-linejoin="round"/>
<path d="M11.25 15.833L11.9444 14.1663M15.4167 15.833L14.7222 14.1663M11.9444 14.1663L13.3333 10.833L14.7222 14.1663M11.9444 14.1663H14.7222" stroke="#686D82" stroke-width="1.5" stroke-linecap="round" stroke-linejoin="round"/>
<path d="M11.667 8.33317V6.6665C11.667 4.30948 11.667 3.13097 10.9348 2.39874C10.2025 1.6665 9.02401 1.6665 6.66699 1.6665C4.30997 1.6665 3.13146 1.6665 2.39923 2.39874C1.66699 3.13097 1.66699 4.30948 1.66699 6.6665C1.66699 9.02353 1.66699 10.202 2.39923 10.9343C3.13146 11.6665 4.30997 11.6665 6.66699 11.6665H8.33366" stroke="#686D82" stroke-width="1.5" stroke-linecap="round"/>
<path d="M8.33398 13.333C8.33398 10.976 8.33398 9.79747 9.06622 9.06524C9.79845 8.33301 10.977 8.33301 13.334 8.33301C15.691 8.33301 16.8695 8.33301 17.6018 9.06524C18.334 9.79747 18.334 10.976 18.334 13.333C18.334 15.69 18.334 16.8685 17.6018 17.6008C16.8695 18.333 15.691 18.333 13.334 18.333C10.977 18.333 9.79845 18.333 9.06622 17.6008C8.33398 16.8685 8.33398 15.69 8.33398 13.333Z" stroke="#686D82" stroke-width="1.5"/>
<path d="M3.33398 13.75C3.33398 14.9204 3.33398 15.5056 3.61487 15.9259C3.73647 16.1079 3.89272 16.2642 4.0747 16.3858C4.49507 16.6667 5.08027 16.6667 6.25065 16.6667" stroke="#686D82" stroke-width="1.5" stroke-linecap="round" stroke-linejoin="round"/>
<path d="M16.667 6.25C16.667 5.07961 16.667 4.49442 16.3861 4.07405C16.2645 3.89207 16.1083 3.73581 15.9263 3.61422C15.5059 3.33333 14.9207 3.33333 13.7503 3.33333" stroke="#686D82" stroke-width="1.5" stroke-linecap="round" stroke-linejoin="round"/>
</g>
<defs>
<clipPath id="clip0_95_2069">
<rect width="20" height="20" fill="white"/>
</clipPath>
</defs>
</svg>
