<svg width="20" height="20" viewBox="0 0 20 20" fill="none" xmlns="http://www.w3.org/2000/svg">
<path d="M1.66699 9.16683C1.66699 6.41697 1.66699 5.04204 2.52126 4.18777C3.37554 3.3335 4.75047 3.3335 7.50033 3.3335H8.33366C11.0835 3.3335 12.4584 3.3335 13.3127 4.18777C14.167 5.04204 14.167 6.41697 14.167 9.16683V10.8335C14.167 13.5834 14.167 14.9583 13.3127 15.8126C12.4584 16.6668 11.0835 16.6668 8.33366 16.6668H7.50032C4.75047 16.6668 3.37554 16.6668 2.52126 15.8126C1.66699 14.9583 1.66699 13.5834 1.66699 10.8335V9.16683Z" stroke="#686D82" stroke-width="1.5"/>
<path d="M14.167 7.42187L14.2719 7.33529C16.0351 5.88052 16.9166 5.15313 17.6251 5.50434C18.3337 5.85556 18.3337 7.01995 18.3337 9.34873V10.6519C18.3337 12.9807 18.3337 14.1451 17.6251 14.4963C16.9166 14.8475 16.0351 14.1201 14.2719 12.6654L14.167 12.5788" stroke="#686D82" stroke-width="1.5" stroke-linecap="round"/>
<ellipse cx="9.58398" cy="7.91699" rx="1.25" ry="1.25" stroke="#686D82" stroke-width="1.5"/>
</svg>
