<svg width="20" height="20" viewBox="0 0 20 20" fill="none" xmlns="http://www.w3.org/2000/svg">
<g clip-path="url(#clip0_95_1931)">
<path d="M1.66699 13.333C1.66699 11.3839 1.66699 10.4094 2.11405 9.69791C2.34717 9.3269 2.66089 9.01318 3.0319 8.78006C3.74338 8.33301 4.71792 8.33301 6.66699 8.33301H13.3337C15.2827 8.33301 16.2573 8.33301 16.9688 8.78006C17.3398 9.01318 17.6535 9.3269 17.8866 9.69791C18.3337 10.4094 18.3337 11.3839 18.3337 13.333C18.3337 15.2821 18.3337 16.2566 17.8866 16.9681C17.6535 17.3391 17.3398 17.6528 16.9688 17.886C16.2573 18.333 15.2827 18.333 13.3337 18.333H6.66699C4.71792 18.333 3.74338 18.333 3.0319 17.886C2.66089 17.6528 2.34717 17.3391 2.11405 16.9681C1.66699 16.2566 1.66699 15.2821 1.66699 13.333Z" stroke="#141B34" stroke-width="1.5" stroke-linecap="round" stroke-linejoin="round"/>
<path d="M16.6673 8.33333C16.6673 7.16656 16.6673 6.58317 16.4402 6.13752C16.2405 5.74552 15.9218 5.42681 15.5298 5.22707C15.0841 5 14.5008 5 13.334 5H6.66732C5.50054 5 4.91715 5 4.4715 5.22707C4.0795 5.42681 3.76079 5.74552 3.56105 6.13752C3.33398 6.58317 3.33398 7.16656 3.33398 8.33333" stroke="#141B34" stroke-width="1.5" stroke-linecap="round" stroke-linejoin="round"/>
<path d="M15 4.99984C15 3.42849 15 2.64281 14.5118 2.15466C14.0237 1.6665 13.238 1.6665 11.6667 1.6665H8.33333C6.76198 1.6665 5.97631 1.6665 5.48816 2.15466C5 2.64281 5 3.42849 5 4.99984" stroke="#141B34" stroke-width="1.5" stroke-linecap="round" stroke-linejoin="round"/>
<path d="M12.5 11.6665C12.5 12.587 11.7538 13.3332 10.8333 13.3332H9.16667C8.24619 13.3332 7.5 12.587 7.5 11.6665" stroke="#141B34" stroke-width="1.5" stroke-linecap="round"/>
</g>
<defs>
<clipPath id="clip0_95_1931">
<rect width="20" height="20" fill="white"/>
</clipPath>
</defs>
</svg>
