<svg width="20" height="20" viewBox="0 0 20 20" fill="none" xmlns="http://www.w3.org/2000/svg">
<path d="M5.83316 3.3335V16.6668M5.83316 3.3335L2.04149 7.15016M5.83316 3.3335H13.5415C13.8456 3.36528 14.1295 3.5006 14.3457 3.7168C14.5619 3.93299 14.6972 4.21691 14.729 4.521V15.4627C14.7008 15.7697 14.5671 16.0576 14.3506 16.2771C14.1341 16.4967 13.8481 16.6344 13.5415 16.6668H3.22899C3.071 16.6691 2.91416 16.6395 2.76794 16.5795C2.62173 16.5196 2.48915 16.4307 2.3782 16.3182C2.26724 16.2057 2.18021 16.0719 2.12235 15.9249C2.06448 15.7778 2.03698 15.6206 2.04149 15.4627V7.15016M2.04149 7.15016H11.1623V12.8502H2.04149M17.104 5.25016C17.7832 4.7085 18.2915 5.15433 18.2915 5.72516V14.2752C18.2915 14.996 17.7832 15.2918 17.104 14.7502L11.1623 10.0002L17.104 5.25016Z" stroke="#141B34" stroke-width="1.5" stroke-linecap="round" stroke-linejoin="round"/>
</svg>
