<svg width="20" height="20" viewBox="0 0 20 20" fill="none" xmlns="http://www.w3.org/2000/svg">
<path d="M17.7642 5.95084L17.3529 5.237C17.0418 4.69714 16.8863 4.42721 16.6217 4.31958C16.357 4.21194 16.0577 4.29687 15.4591 4.46674L14.4422 4.75316C14.0601 4.84129 13.6591 4.79129 13.3101 4.612L13.0294 4.45002C12.7302 4.25837 12.5 3.97579 12.3726 3.64363L12.0943 2.81247C11.9113 2.26246 11.8198 1.98745 11.602 1.83015C11.3842 1.67285 11.0949 1.67285 10.5163 1.67285H9.58729C9.00866 1.67285 8.71934 1.67285 8.50153 1.83015C8.28372 1.98745 8.19223 2.26246 8.00925 2.81247L7.73095 3.64363C7.60355 3.97579 7.37338 4.25837 7.07415 4.45002L6.79341 4.612C6.44446 4.79129 6.0435 4.84129 5.66133 4.75316L4.64446 4.46674C4.04585 4.29687 3.74655 4.21194 3.4819 4.31958C3.21725 4.42721 3.06171 4.69714 2.75064 5.237L2.33931 5.95084C2.04772 6.45688 1.90193 6.7099 1.93022 6.97925C1.95852 7.2486 2.1537 7.46566 2.54406 7.89977L3.40326 8.86036C3.61326 9.12621 3.76235 9.58952 3.76235 10.006C3.76235 10.4229 3.61331 10.886 3.40328 11.1519L2.54406 12.1125C2.1537 12.5466 1.95852 12.7637 1.93022 13.0331C1.90193 13.3024 2.04773 13.5554 2.33931 14.0615L2.75062 14.7753C3.0617 15.3151 3.21725 15.5851 3.4819 15.6927C3.74655 15.8004 4.04586 15.7154 4.64448 15.5455L5.66129 15.2591C6.04353 15.171 6.44456 15.221 6.79356 15.4003L7.07426 15.5623C7.37343 15.754 7.60354 16.0365 7.73092 16.3687L8.00925 17.1999C8.19223 17.7499 8.28372 18.0249 8.50153 18.1822C8.71934 18.3395 9.00866 18.3395 9.58729 18.3395H10.5163C11.0949 18.3395 11.3842 18.3395 11.602 18.1822C11.8198 18.0249 11.9113 17.7499 12.0943 17.1999L12.3726 16.3687C12.5 16.0365 12.7301 15.754 13.0293 15.5623L13.31 15.4003C13.659 15.221 14.06 15.171 14.4423 15.2591L15.4591 15.5455C16.0577 15.7154 16.357 15.8004 16.6217 15.6927C16.8863 15.5851 17.0419 15.3151 17.3529 14.7753L17.3529 14.7753L17.7642 14.0615C18.0558 13.5554 18.2016 13.3024 18.1733 13.0331C18.145 12.7637 17.9499 12.5466 17.5595 12.1125L16.7003 11.1519C16.4903 10.886 16.3412 10.4229 16.3412 10.006C16.3412 9.58952 16.4903 9.12621 16.7003 8.86036L17.5595 7.89977C17.9499 7.46566 18.145 7.2486 18.1733 6.97925C18.2016 6.7099 18.0558 6.45688 17.7642 5.95084Z" stroke="#141B34" stroke-width="1.5" stroke-linecap="round"/>
<path d="M12.9329 9.99967C12.9329 11.6105 11.6271 12.9163 10.0163 12.9163C8.40545 12.9163 7.09961 11.6105 7.09961 9.99967C7.09961 8.38884 8.40545 7.08301 10.0163 7.08301C11.6271 7.08301 12.9329 8.38884 12.9329 9.99967Z" stroke="#141B34" stroke-width="1.5"/>
</svg>
