<svg width="20" height="20" viewBox="0 0 20 20" fill="none" xmlns="http://www.w3.org/2000/svg">
<g clip-path="url(#clip0_95_1943)">
<circle cx="1.25" cy="1.25" r="1.25" transform="matrix(1 0 0 -1 13.334 6.6665)" stroke="#141B34" stroke-width="1.5" stroke-linecap="round" stroke-linejoin="round"/>
<path d="M2.31218 9.28644C1.47623 10.2201 1.45824 11.6287 2.22546 12.6196C3.74792 14.5859 5.41427 16.2522 7.3806 17.7747C8.37149 18.5419 9.78008 18.5239 10.7137 17.688C13.2486 15.4183 15.5699 13.0464 17.8102 10.4398C18.0317 10.1821 18.1703 9.86624 18.2014 9.52786C18.3389 8.03149 18.6213 3.7204 17.4505 2.54962C16.2798 1.37885 11.9687 1.66131 10.4723 1.79881C10.1339 1.8299 9.81807 1.96845 9.56037 2.18993C6.95376 4.43022 4.58183 6.75159 2.31218 9.28644Z" stroke="#141B34" stroke-width="1.5"/>
<path d="M5.83398 11.6665L8.33398 14.1665" stroke="#141B34" stroke-width="1.5" stroke-linecap="round" stroke-linejoin="round"/>
</g>
<defs>
<clipPath id="clip0_95_1943">
<rect width="20" height="20" fill="white"/>
</clipPath>
</defs>
</svg>
