<svg width="20" height="20" viewBox="0 0 20 20" fill="none" xmlns="http://www.w3.org/2000/svg">
<g clip-path="url(#clip0_95_1949)">
<path d="M17.5003 10V10.4167C17.5003 14.1486 17.5003 16.0146 16.341 17.174C15.1816 18.3333 13.3156 18.3333 9.58366 18.3333C5.85171 18.3333 3.98573 18.3333 2.82636 17.174C1.66699 16.0146 1.66699 14.1486 1.66699 10.4167C1.66699 6.68471 1.66699 4.81874 2.82636 3.65937C3.98573 2.5 5.85171 2.5 9.58366 2.5H10.0003" stroke="#FF645A" stroke-width="1.5" stroke-linecap="round" stroke-linejoin="round"/>
<path d="M18.3333 4.58317C18.3333 6.194 17.0275 7.49984 15.4167 7.49984C13.8058 7.49984 12.5 6.194 12.5 4.58317C12.5 2.97234 13.8058 1.6665 15.4167 1.6665C17.0275 1.6665 18.3333 2.97234 18.3333 4.58317Z" stroke="#FF645A" stroke-width="1.5"/>
<path d="M17.5003 11.6665H13.3956C12.6938 11.6665 12.1425 12.2528 11.8332 12.8725C11.4972 13.5458 10.8244 14.1665 9.58366 14.1665C8.34293 14.1665 7.6701 13.5458 7.33411 12.8725C7.02484 12.2528 6.47347 11.6665 5.77171 11.6665H1.66699" stroke="#FF645A" stroke-width="1.5" stroke-linejoin="round"/>
</g>
<defs>
<clipPath id="clip0_95_1949">
<rect width="20" height="20" fill="white"/>
</clipPath>
</defs>
</svg>
