<svg width="20" height="20" viewBox="0 0 20 20" fill="none" xmlns="http://www.w3.org/2000/svg">
<path d="M15 1.6665V3.33317M5 1.6665V3.33317" stroke="#141B34" stroke-width="1.5" stroke-linecap="round" stroke-linejoin="round"/>
<path d="M9.99561 10.833H10.0031M9.99561 14.1663H10.0031M13.3252 10.833H13.3327M6.66602 10.833H6.67349M6.66602 14.1663H6.67349" stroke="#141B34" stroke-width="2" stroke-linecap="round" stroke-linejoin="round"/>
<path d="M2.91602 6.6665H17.0827" stroke="#141B34" stroke-width="1.5" stroke-linecap="round" stroke-linejoin="round"/>
<path d="M2.08301 10.2027C2.08301 6.57161 2.08301 4.75607 3.12644 3.62803C4.16987 2.5 5.84925 2.5 9.20801 2.5H10.7913C14.1501 2.5 15.8295 2.5 16.8729 3.62803C17.9163 4.75607 17.9163 6.57161 17.9163 10.2027V10.6306C17.9163 14.2617 17.9163 16.0773 16.8729 17.2053C15.8295 18.3333 14.1501 18.3333 10.7913 18.3333H9.20801C5.84925 18.3333 4.16987 18.3333 3.12644 17.2053C2.08301 16.0773 2.08301 14.2617 2.08301 10.6306V10.2027Z" stroke="#141B34" stroke-width="1.5" stroke-linecap="round" stroke-linejoin="round"/>
<path d="M2.5 6.6665H17.5" stroke="#141B34" stroke-width="1.5" stroke-linecap="round" stroke-linejoin="round"/>
</svg>
