<svg width="20" height="20" viewBox="0 0 20 20" fill="none" xmlns="http://www.w3.org/2000/svg">
<g clip-path="url(#clip0_95_1925)">
<path d="M13.334 4.1665C13.334 3.38993 13.334 3.00165 13.4609 2.69536C13.63 2.28698 13.9545 1.96253 14.3628 1.79337C14.6691 1.6665 15.0574 1.6665 15.834 1.6665C16.6106 1.6665 16.9988 1.6665 17.3051 1.79337C17.7135 1.96253 18.038 2.28698 18.2071 2.69536C18.334 3.00165 18.334 3.38993 18.334 4.1665V7.49984C18.334 8.27641 18.334 8.66469 18.2071 8.97098C18.038 9.37936 17.7135 9.70381 17.3051 9.87297C16.9988 9.99984 16.6106 9.99984 15.834 9.99984C15.0574 9.99984 14.6691 9.99984 14.3628 9.87297C13.9545 9.70381 13.63 9.37936 13.4609 8.97098C13.334 8.66469 13.334 8.27641 13.334 7.49984V4.1665Z" stroke="#141B34" stroke-width="1.5"/>
<path d="M13.334 15.833C13.334 15.0564 13.334 14.6682 13.4609 14.3619C13.63 13.9535 13.9545 13.629 14.3628 13.4599C14.6691 13.333 15.0574 13.333 15.834 13.333C16.6106 13.333 16.9988 13.333 17.3051 13.4599C17.7135 13.629 18.038 13.9535 18.2071 14.3619C18.334 14.6682 18.334 15.0564 18.334 15.833C18.334 16.6096 18.334 16.9979 18.2071 17.3041C18.038 17.7125 17.7135 18.037 17.3051 18.2061C16.9988 18.333 16.6106 18.333 15.834 18.333C15.0574 18.333 14.6691 18.333 14.3628 18.2061C13.9545 18.037 13.63 17.7125 13.4609 17.3041C13.334 16.9979 13.334 16.6096 13.334 15.833Z" stroke="#141B34" stroke-width="1.5"/>
<path d="M1.66699 13.3333C1.66699 11.762 1.66699 10.9763 2.15515 10.4882C2.6433 10 3.42898 10 5.00033 10H6.66699C8.23834 10 9.02401 10 9.51217 10.4882C10.0003 10.9763 10.0003 11.762 10.0003 13.3333V15C10.0003 16.5713 10.0003 17.357 9.51217 17.8452C9.02401 18.3333 8.23834 18.3333 6.66699 18.3333H5.00033C3.42898 18.3333 2.6433 18.3333 2.15515 17.8452C1.66699 17.357 1.66699 16.5713 1.66699 15V13.3333Z" stroke="#141B34" stroke-width="1.5"/>
<path d="M1.66699 4.1665C1.66699 3.38993 1.66699 3.00165 1.79386 2.69536C1.96302 2.28698 2.28747 1.96253 2.69585 1.79337C3.00214 1.6665 3.39042 1.6665 4.16699 1.6665H7.50033C8.27689 1.6665 8.66518 1.6665 8.97146 1.79337C9.37984 1.96253 9.7043 2.28698 9.87346 2.69536C10.0003 3.00165 10.0003 3.38993 10.0003 4.1665C10.0003 4.94307 10.0003 5.33136 9.87346 5.63764C9.7043 6.04602 9.37984 6.37048 8.97146 6.53964C8.66518 6.6665 8.27689 6.6665 7.50033 6.6665H4.16699C3.39042 6.6665 3.00214 6.6665 2.69585 6.53964C2.28747 6.37048 1.96302 6.04602 1.79386 5.63764C1.66699 5.33136 1.66699 4.94307 1.66699 4.1665Z" stroke="#141B34" stroke-width="1.5"/>
</g>
<defs>
<clipPath id="clip0_95_1925">
<rect width="20" height="20" fill="white"/>
</clipPath>
</defs>
</svg>
